# xmcd
#
# Track frame offsets:
#	150
#	13750
#	22775
#	31567
#	41519
#	52069
#	63781
#	72156
#	85850
#	94970
#	106004
#	114730
#	124118
#	134895
#	142890
#	154523
#	162822
#	171971
#	182875
#	192772
#	205508
#	218468
#	234496
#	243602
#	251423
#	261207
#	274392
#	284910
#	297580
#
# Disc length: 4140 seconds
#
# Revision: 0
# Processed by: cddbd v1.5.2PL0 Copyright (c) Steve Scherf et al.
# Submitted via: EasyCDDAExtractor 10.0.2.1
#
DISCID=a4102a1d
DTITLE=Johnny Cash - The Man In Black - 1959-62 - CD4
DYEAR=1991
DGENRE=Country
TTITLE0=Tennessee Flat Top Box
TTITLE1=Sing It Pretty Sue
TTITLE2=A Little At A Time
TTITLE3=So Do I
TTITLE4=Bonanza
TTITLE5=Shamrock Doesn't Grow In California
TTITLE6=I'm Free From The Chain Gang Now
TTITLE7=Delia's Gone
TTITLE8=Lost In The Desert
TTITLE9=Forgot More Than You'll Ever Know About Her
TTITLE10=Accidentally On Purpose
TTITLE11=You remembered Me
TTITLE12=In The Jailhouse Now
TTITLE13=Let Me Down Easy
TTITLE14=In Them Old Cottonfields Back Home
TTITLE15=You Won't Have Far To Go
TTITLE16=Delia's Gone
TTITLE17=No One Will Ever Know
TTITLE18=The Danger Zone
TTITLE19=I'll Be All Smiles Tonight
TTITLE20=Send A Picture Of Mother
TTITLE21=Hardin' Wouldn't Run
TTITLE22=Sing It Pretty Sue
TTITLE23=Blue Bandana
TTITLE24=So Doggone Lonesome
TTITLE25=Johnny Reb
TTITLE26=Delia's Gone
TTITLE27=I Walk The Line (take 6, slow)
TTITLE28=I Walk The Line (take 9, fast)
EXTD=YEAR: 1991 ID3G: 2\n
EXTT0=
EXTT1=
EXTT2=
EXTT3=
EXTT4=
EXTT5=
EXTT6=
EXTT7=
EXTT8=
EXTT9=
EXTT10=
EXTT11=
EXTT12=
EXTT13=
EXTT14=
EXTT15=
EXTT16=
EXTT17=
EXTT18=
EXTT19=
EXTT20=
EXTT21=
EXTT22=
EXTT23=
EXTT24=
EXTT25=
EXTT26=
EXTT27=
EXTT28=
PLAYORDER=
